<svg xmlns="http://www.w3.org/2000/svg" viewBox="0 0 133.46 24"><defs><style>.cls-1{fill:#222;}</style></defs><g id="レイヤー_2" data-name="レイヤー 2"><g id="レイヤー_1-2" data-name="レイヤー 1"><path class="cls-1" d="M19.75,2.52a14.42,14.42,0,0,0-3-1.54A14.64,14.64,0,0,0,12.64,0,11,11,0,0,0,8.53.41,10.18,10.18,0,0,0,5,2.28a11.51,11.51,0,0,0-2,1.79,12.11,12.11,0,0,0-2,3.27A11.72,11.72,0,0,0,.05,11,11.06,11.06,0,0,0,.3,14.59a9.45,9.45,0,0,0,1.06,2.94,9.45,9.45,0,0,0,2,2.36A3.74,3.74,0,0,0,5.2,21a4.46,4.46,0,0,0,2.23-.19,4.38,4.38,0,0,0,1.75-1.06C9.62,19.27,19.75,2.52,19.75,2.52Z"/><path class="cls-1" d="M22.69.06c-5.74,9.67-10,16.72-11,18.28a8.47,8.47,0,0,1-1.53,1.82A8.65,8.65,0,0,1,8,21.59a8.56,8.56,0,0,1-2.16.64H5.68a6.64,6.64,0,0,0,2.75,1.22,6.55,6.55,0,0,0,3.1-.14,6.78,6.78,0,0,0,2.26-1.23,7.2,7.2,0,0,0,1.77-2.21c1-1.87,5.49-9.36,11.75-19.76Z"/><path class="cls-1" d="M33.65.06S22.55,19.19,21.26,20.6a8.56,8.56,0,0,1-2.43,1.76,12.06,12.06,0,0,1-3.42,1.39,9.79,9.79,0,0,1-3.24.2,12.07,12.07,0,0,0,3.55-2.15,11.28,11.28,0,0,0,2-2.59c.61-1,5.5-9.34,11.55-19.15Z"/><path class="cls-1" d="M58.8.34a7.16,7.16,0,0,0-3.21,0,3.32,3.32,0,0,0-1.72,1.1,3.12,3.12,0,0,0-.61,1.78l-12.8-.14a4.74,4.74,0,0,0-1.12.14,2.57,2.57,0,0,0-1.07.59,3.66,3.66,0,0,0-.79,1,3.57,3.57,0,0,0-.33,2H52.37L49.1,23.09h5.73L57.65,6.82,61,6.77l.24-3.54H58.24Z"/><path class="cls-1" d="M33.69,22.93H40a3.92,3.92,0,0,0,1.71-.2A4,4,0,0,0,43,22a5.83,5.83,0,0,0,1.61-1.9l5.9-10.28c.16-.34.4-.8.69-1.33a1.08,1.08,0,0,1,.42-.44A.88.88,0,0,1,52.07,8H47.3a3.18,3.18,0,0,0-1.06.11,2.4,2.4,0,0,0-1.07.67l-5.65,9.6a1.55,1.55,0,0,1-.34.55.75.75,0,0,1-.43.27H38.3c-1.18,0-2.37,0-3.55,0a1,1,0,0,0-.49.1.91.91,0,0,0-.38.3,1.09,1.09,0,0,0-.15.45,2.35,2.35,0,0,0,0,.46A18.56,18.56,0,0,0,33.69,22.93Z"/><path class="cls-1" d="M86,4.68H77.4L77.63.52H74.91a2.8,2.8,0,0,0-1.9.69,3,3,0,0,0-1,2.22L72,4.68H64.37A3.84,3.84,0,0,0,62.8,6.44a3.76,3.76,0,0,0-.28,1.87h9.26l-.18,3.73H62.83a3.84,3.84,0,0,0-1.57,1.76A3.76,3.76,0,0,0,61,15.68H71.42L71,23.29h5.37l.41-7.59h7.1a1.93,1.93,0,0,0,.72-.63A2.14,2.14,0,0,0,85,13.83a3.08,3.08,0,0,0-.51-1.78H77l.2-3.72h8.25a1.93,1.93,0,0,0,.72-.63,2.14,2.14,0,0,0,.33-1.24A3.11,3.11,0,0,0,86,4.68Z"/><path class="cls-1" d="M91,1.9a2.31,2.31,0,0,0-.61.15A3.06,3.06,0,0,0,89,3.49a6.82,6.82,0,0,0-.76,2H99.79l.61-3.58Z"/><path class="cls-1" d="M89.82,8.05a2,2,0,0,0-.61.15,3,3,0,0,0-1.38,1.44,6.74,6.74,0,0,0-.76,2H98.63l.61-3.57Z"/><path class="cls-1" d="M102.11,23.29a6.28,6.28,0,0,0,2.39-.69,6.52,6.52,0,0,0,2.29-2.11A8.6,8.6,0,0,0,108,18.17l2.2-12.48h-2.81a3.87,3.87,0,0,0-1.56.43,3.24,3.24,0,0,0-1.25,1.07A6,6,0,0,0,104.1,9l-1.78,11.16H86.18l-.43,3.11Z"/><path class="cls-1" d="M105.55,4.52A5,5,0,0,1,106,2.2,5,5,0,0,1,107.08.73h1.72l-.53,3.79Z"/><path class="cls-1" d="M109.46,4.52a4.91,4.91,0,0,1,.46-2.32A4.84,4.84,0,0,1,111,.73h1.72l-.54,3.79h-2.71Z"/><path class="cls-1" d="M118.49,3.07A4.79,4.79,0,0,1,122,.52h3.8L117.34,20h11V12.08a3.32,3.32,0,0,1,3-2.55h2.19V19.75a5.77,5.77,0,0,1-4,4h-21s0-3.8.13-3.8h2.82Z"/></g></g></svg>