<svg xmlns="http://www.w3.org/2000/svg" viewBox="0 0 30 97.05"><defs><style>.cls-1{fill:#222;}.cls-2{fill:none;stroke:#222;stroke-miterlimit:10;}</style></defs><g id="レイヤー_2" data-name="レイヤー 2"><g id="レイヤー_1-2" data-name="レイヤー 1"><path class="cls-1" d="M15,68.05a14,14,0,1,1-14,14,14,14,0,0,1,14-14m0-1a15,15,0,1,0,15,15,15,15,0,0,0-15-15Z"/><polyline class="cls-2" points="19.65 84.17 15 80.21 10.35 84.17"/><path class="cls-1" d="M18.45,0V2.51c0,2-.66,3.29-2.58,3.29s-2.72-1.31-2.72-3.23V1.12H9.66V0Zm-4.4,2.42c0,1.55.56,2.28,1.82,2.28s1.68-.78,1.68-2.33V1.12h-3.5Z"/><path class="cls-1" d="M12.34,11.61V8.4L9.66,7.55V6.42l8.79,3v1.23l-8.79,3V12.45Zm.89-.27,1.34-.42c1-.33,2-.6,3-.89v0c-1-.27-2-.56-3-.87l-1.34-.43Z"/><path class="cls-1" d="M14.05,14.36c2.84,0,4.57,1.71,4.57,4a3.33,3.33,0,0,1-1.1,2.53l-.72-.6a2.44,2.44,0,0,0,.84-1.9c0-1.77-1.36-2.92-3.56-2.92s-3.61,1.05-3.61,2.93A2.37,2.37,0,0,0,11,20h2.3V18.17h.92V21H10.52a3.75,3.75,0,0,1-1-2.72C9.5,16,11.19,14.36,14.05,14.36Z"/><path class="cls-1" d="M18.45,23.14v5.07h-.94v-4H14.75v3.33h-.94V24.25H10.6v4.09H9.66v-5.2Z"/><path class="cls-1" d="M17.51,34.71V32.05h.94v6.44h-.94V35.83H9.66V34.71Z"/><path class="cls-1" d="M14.08,39.56c2.82,0,4.54,1.55,4.54,3.76s-1.72,3.75-4.54,3.75S9.5,45.52,9.5,43.32,11.26,39.56,14.08,39.56Zm0,6.37c2.21,0,3.56-1,3.56-2.61s-1.35-2.62-3.56-2.62-3.61,1-3.61,2.62S11.89,45.93,14.08,45.93Z"/><path class="cls-1" d="M18.45,49v2.51c0,2-.66,3.3-2.58,3.3s-2.72-1.32-2.72-3.24V50.09H9.66V49Zm-4.4,2.42c0,1.55.56,2.28,1.82,2.28s1.68-.78,1.68-2.32V50.09h-3.5Z"/></g></g></svg>